<svg xmlns="http://www.w3.org/2000/svg" xmlns:xlink="http://www.w3.org/1999/xlink" version="1.1" x="0px" y="0px" width="100px" height="100px" viewBox="0 0 100 100" enable-background="new 0 0 100 100" xml:space="preserve">
<g id="Layer_1">
	<g id="Captions">
	</g>
	<g id="Your_Icon">
		<g>
			<path id="frame_7_" d="M14.254,71.932c-1.739-0.502-3.03-2.094-3.03-3.988V25.234c0-2.292,1.877-4.167,4.168-4.167h67.53     c2.292,0,4.168,1.875,4.168,4.167v42.708c0,1.895-1.29,3.488-3.03,3.99h-1.611H14.254z M15.111,68.652h68.09V24.523H15.112     L15.111,68.652L15.111,68.652z"/>
			<path id="keyboard_7_" d="M94.289,73.869H54.563c-0.021,0.436-0.198,1.756-1.684,1.756c-3.738,0-3.864,0-7.602,0     c-1.69,0-1.897-1.32-1.921-1.756H5.71c0,0,0,4.424,3.234,4.424c3.234,0,78.207,0,81.853,0     C94.441,78.293,94.289,73.869,94.289,73.869z"/>
			<path d="M77.399,64.922c-5.575,0-11.015,0-16.566,0c0-2.357,0-4.684,0-7.146c5.468,0,10.967,0,16.566,0     C77.399,60.125,77.399,62.451,77.399,64.922z"/>
			<path d="M77.399,35.683c-18.516,0-36.582,0-55.018,0c0-2.356,0-4.683,0-7.146c18.157,0,36.422,0,55.018,0     C77.399,30.887,77.399,33.212,77.399,35.683z"/>
			<g>
				<path d="M58.185,62.256c-5.574,0-11.014,0-16.565,0c0-0.592,0-1.178,0-1.797c5.467,0,10.967,0,16.565,0      C58.185,61.049,58.185,61.635,58.185,62.256z"/>
				<path d="M58.185,64.893c-5.574,0-11.014,0-16.565,0c0-0.592,0-1.178,0-1.795c5.467,0,10.967,0,16.565,0      C58.185,63.688,58.185,64.273,58.185,64.893z"/>
				<path d="M58.185,59.617c-5.574,0-11.014,0-16.565,0c0-0.592,0-1.176,0-1.795c5.467,0,10.967,0,16.565,0      C58.185,58.412,58.185,58.998,58.185,59.617z"/>
			</g>
			<g>
				<path d="M77.399,42.786c-5.575,0-11.015,0-16.566,0c0-0.593,0-1.178,0-1.797c5.468,0,10.967,0,16.566,0      C77.399,41.58,77.399,42.165,77.399,42.786z"/>
				<path d="M77.399,45.423c-5.575,0-11.015,0-16.566,0c0-0.592,0-1.177,0-1.795c5.468,0,10.967,0,16.566,0      C77.399,44.217,77.399,44.803,77.399,45.423z"/>
				<path d="M77.399,40.148c-5.575,0-11.015,0-16.566,0c0-0.593,0-1.177,0-1.796c5.468,0,10.967,0,16.566,0      C77.399,38.943,77.399,39.527,77.399,40.148z"/>
			</g>
			<g>
				<path d="M77.399,50.68c-5.575,0-11.015,0-16.566,0c0-0.593,0-1.178,0-1.796c5.468,0,10.967,0,16.566,0      C77.399,49.473,77.399,50.059,77.399,50.68z"/>
				<path d="M77.399,53.316c-5.575,0-11.015,0-16.566,0c0-0.592,0-1.178,0-1.795c5.468,0,10.967,0,16.566,0      C77.399,52.111,77.399,52.695,77.399,53.316z"/>
				<path d="M77.399,48.042c-5.575,0-11.015,0-16.566,0c0-0.592,0-1.177,0-1.795c5.468,0,10.967,0,16.566,0      C77.399,46.836,77.399,47.422,77.399,48.042z"/>
			</g>
			<g>
				<path d="M38.945,62.256c-5.575,0-11.014,0-16.565,0c0-0.592,0-1.178,0-1.797c5.467,0,10.966,0,16.565,0      C38.945,61.049,38.945,61.635,38.945,62.256z"/>
				<path d="M38.945,64.893c-5.575,0-11.014,0-16.565,0c0-0.592,0-1.178,0-1.795c5.467,0,10.966,0,16.565,0      C38.945,63.688,38.945,64.273,38.945,64.893z"/>
				<path d="M38.945,59.617c-5.575,0-11.014,0-16.565,0c0-0.592,0-1.176,0-1.795c5.467,0,10.966,0,16.565,0      C38.945,58.412,38.945,58.998,38.945,59.617z"/>
			</g>
			<g>
				<path d="M58.185,42.786c-12.049,0-23.807,0-35.805,0c0-0.593,0-1.178,0-1.797c11.816,0,23.703,0,35.805,0      C58.185,41.58,58.185,42.165,58.185,42.786z"/>
				<path d="M58.185,45.423c-12.049,0-23.807,0-35.805,0c0-0.592,0-1.177,0-1.795c11.816,0,23.703,0,35.805,0      C58.185,44.217,58.185,44.803,58.185,45.423z"/>
				<path d="M58.185,40.148c-12.049,0-23.807,0-35.805,0c0-0.593,0-1.177,0-1.796c11.816,0,23.703,0,35.805,0      C58.185,38.943,58.185,39.527,58.185,40.148z"/>
			</g>
			<path d="M22.381,49.048c6.771,0,13.448,0,20.202,0c0,1.293,0,2.522,0,3.877c-6.708,0-13.415,0-20.202,0     C22.381,51.666,22.381,50.433,22.381,49.048z"/>
		</g>
		<g>
			<path id="frame_6_" d="M14.254,71.932c-1.739-0.502-3.03-2.094-3.03-3.988V25.234c0-2.292,1.877-4.167,4.168-4.167h67.53     c2.292,0,4.168,1.875,4.168,4.167v42.708c0,1.895-1.29,3.488-3.03,3.99h-1.611H14.254z M15.111,68.652h68.09V24.523H15.112     L15.111,68.652L15.111,68.652z"/>
			<path id="keyboard_6_" d="M94.289,73.869H54.563c-0.021,0.436-0.198,1.756-1.684,1.756c-3.738,0-3.864,0-7.602,0     c-1.69,0-1.897-1.32-1.921-1.756H5.71c0,0,0,4.424,3.234,4.424c3.234,0,78.207,0,81.853,0     C94.441,78.293,94.289,73.869,94.289,73.869z"/>
			<path fill-rule="evenodd" clip-rule="evenodd" d="M77.399,64.922c-5.575,0-11.015,0-16.566,0c0-2.357,0-4.684,0-7.146     c5.468,0,10.967,0,16.566,0C77.399,60.125,77.399,62.451,77.399,64.922z"/>
			<path fill-rule="evenodd" clip-rule="evenodd" d="M77.399,35.683c-18.516,0-36.582,0-55.018,0c0-2.356,0-4.683,0-7.146     c18.157,0,36.422,0,55.018,0C77.399,30.887,77.399,33.212,77.399,35.683z"/>
			<g>
				<path fill-rule="evenodd" clip-rule="evenodd" d="M58.185,62.256c-5.574,0-11.014,0-16.565,0c0-0.592,0-1.178,0-1.797      c5.467,0,10.967,0,16.565,0C58.185,61.049,58.185,61.635,58.185,62.256z"/>
				<path fill-rule="evenodd" clip-rule="evenodd" d="M58.185,64.893c-5.574,0-11.014,0-16.565,0c0-0.592,0-1.178,0-1.795      c5.467,0,10.967,0,16.565,0C58.185,63.688,58.185,64.273,58.185,64.893z"/>
				<path fill-rule="evenodd" clip-rule="evenodd" d="M58.185,59.617c-5.574,0-11.014,0-16.565,0c0-0.592,0-1.176,0-1.795      c5.467,0,10.967,0,16.565,0C58.185,58.412,58.185,58.998,58.185,59.617z"/>
			</g>
			<g>
				<path fill-rule="evenodd" clip-rule="evenodd" d="M77.399,42.786c-5.575,0-11.015,0-16.566,0c0-0.593,0-1.178,0-1.797      c5.468,0,10.967,0,16.566,0C77.399,41.58,77.399,42.165,77.399,42.786z"/>
				<path fill-rule="evenodd" clip-rule="evenodd" d="M77.399,45.423c-5.575,0-11.015,0-16.566,0c0-0.592,0-1.177,0-1.795      c5.468,0,10.967,0,16.566,0C77.399,44.217,77.399,44.803,77.399,45.423z"/>
				<path fill-rule="evenodd" clip-rule="evenodd" d="M77.399,40.148c-5.575,0-11.015,0-16.566,0c0-0.593,0-1.177,0-1.796      c5.468,0,10.967,0,16.566,0C77.399,38.943,77.399,39.527,77.399,40.148z"/>
			</g>
			<g>
				<path fill-rule="evenodd" clip-rule="evenodd" d="M77.399,50.68c-5.575,0-11.015,0-16.566,0c0-0.593,0-1.178,0-1.796      c5.468,0,10.967,0,16.566,0C77.399,49.473,77.399,50.059,77.399,50.68z"/>
				<path fill-rule="evenodd" clip-rule="evenodd" d="M77.399,53.316c-5.575,0-11.015,0-16.566,0c0-0.592,0-1.178,0-1.795      c5.468,0,10.967,0,16.566,0C77.399,52.111,77.399,52.695,77.399,53.316z"/>
				<path fill-rule="evenodd" clip-rule="evenodd" d="M77.399,48.042c-5.575,0-11.015,0-16.566,0c0-0.592,0-1.177,0-1.795      c5.468,0,10.967,0,16.566,0C77.399,46.836,77.399,47.422,77.399,48.042z"/>
			</g>
			<g>
				<path fill-rule="evenodd" clip-rule="evenodd" d="M38.945,62.256c-5.575,0-11.014,0-16.565,0c0-0.592,0-1.178,0-1.797      c5.467,0,10.966,0,16.565,0C38.945,61.049,38.945,61.635,38.945,62.256z"/>
				<path fill-rule="evenodd" clip-rule="evenodd" d="M38.945,64.893c-5.575,0-11.014,0-16.565,0c0-0.592,0-1.178,0-1.795      c5.467,0,10.966,0,16.565,0C38.945,63.688,38.945,64.273,38.945,64.893z"/>
				<path fill-rule="evenodd" clip-rule="evenodd" d="M38.945,59.617c-5.575,0-11.014,0-16.565,0c0-0.592,0-1.176,0-1.795      c5.467,0,10.966,0,16.565,0C38.945,58.412,38.945,58.998,38.945,59.617z"/>
			</g>
			<g>
				<path fill-rule="evenodd" clip-rule="evenodd" d="M58.185,42.786c-12.049,0-23.807,0-35.805,0c0-0.593,0-1.178,0-1.797      c11.816,0,23.703,0,35.805,0C58.185,41.58,58.185,42.165,58.185,42.786z"/>
				<path fill-rule="evenodd" clip-rule="evenodd" d="M58.185,45.423c-12.049,0-23.807,0-35.805,0c0-0.592,0-1.177,0-1.795      c11.816,0,23.703,0,35.805,0C58.185,44.217,58.185,44.803,58.185,45.423z"/>
				<path fill-rule="evenodd" clip-rule="evenodd" d="M58.185,40.148c-12.049,0-23.807,0-35.805,0c0-0.593,0-1.177,0-1.796      c11.816,0,23.703,0,35.805,0C58.185,38.943,58.185,39.527,58.185,40.148z"/>
			</g>
			<path fill-rule="evenodd" clip-rule="evenodd" d="M22.381,49.048c6.771,0,13.448,0,20.202,0c0,1.293,0,2.522,0,3.877     c-6.708,0-13.415,0-20.202,0C22.381,51.666,22.381,50.433,22.381,49.048z"/>
		</g>
	</g>
</g>
<g id="Delete">
	<path display="none" fill="#000000" d="M72.833,12.854c-19.33,0-35,15.67-35,35c0,19.33,15.67,35,35,35s35-15.67,35-35   C107.833,28.524,92.163,12.854,72.833,12.854z M95.084,61.404l-8.702,8.701L72.83,56.557L59.285,70.102L50.582,61.4l13.546-13.547   L50.582,34.307l8.703-8.703L72.83,39.15l13.55-13.548l8.704,8.703L81.533,47.854L95.084,61.404z"/>
</g>
<g id="Paint_Brush" display="none">
	<polygon display="inline" points="31.732,40.371 36.83,43.638 40.639,35.904 34.943,33.856  "/>
	<path display="inline" d="M66.378,49.502c-13.742-6.766-20.781-11.889-24.931-13.227l-3.854,7.84   c3.591,2.474,11.703,4.755,25.442,11.522c30.146,14.852,31.802,12.967,32.387,11.796C96.217,65.84,96.521,64.353,66.378,49.502z"/>
	<path display="inline" d="M15.484,25.396C11.636,26.737,6.239,29.107,3,31.253c0,0,10.07-2.617,13.754,3.707   c2.511,4.307,6.322,9.378,14.173,5.076l3.168-6.433C33.595,28.411,30.336,21.457,15.484,25.396z M24.741,38.624   c0,0-3.305,2.467-7.083-4.034c-2.209-3.8-9.695-4.477-9.695-4.477s9.208-0.399,12.909,1.051   C24.645,32.645,27.188,37.207,24.741,38.624z"/>
	<polygon display="inline" points="39.833,68.134 44.635,64.445 38.646,58.241 34.789,62.911  "/>
	<path display="inline" d="M87.189,17.71c-0.913-0.937-3.065-2.226-27.246,21.109C48.923,49.456,41.896,54.104,39.228,57.556   l6.062,6.29c3.545-2.54,8.686-9.567,19.706-20.201C89.176,20.308,88.431,18.982,87.189,17.71z"/>
	<path display="inline" d="M39.105,68.632l-4.981-5.159c-8.788-1.701-10.872,4.29-11.948,9.158   c-1.58,7.147-11.968,7.726-11.968,7.726c3.739,1.057,9.602,1.667,13.674,1.771C39.229,81.349,40.213,73.73,39.105,68.632z    M27.254,74.986c-3.083,2.513-11.974,4.94-11.974,4.94s6.923-2.926,7.868-7.22c1.615-7.342,5.516-6.002,5.516-6.002   C31.426,67.307,30.396,72.429,27.254,74.986z"/>
</g>
</svg>